# AST/ASF file generated using VICON BodyLanguage
# -----------------------------------------------
:version 1.10
:name VICON
:units
  mass 1.0
  length 0.45
  angle deg
:documentation
   .ast/.asf automatically generated from VICON data using
   VICON BodyBuilder and BodyLanguage model FoxedUp or BRILLIANT.MOD
:root
   order TX TY TZ RX RY RZ
   axis XYZ
   position 0 0 0  
   orientation 0 0 0 
:bonedata
  begin
     id 1 
     name lhipjoint
     direction 0.702568 -0.596508 0.388042 
     length 2.56661 
     axis 0 0 0  XYZ
  end
  begin
     id 2 
     name lfemur
     direction 0.34202 -0.939693 0  
     length 6.58374  
     axis 0 0 20  XYZ
    dof rx ry rz
    limits (-160.0 20.0)
           (-70.0 70.0)
           (-60.0 70.0)
  end
  begin
     id 3 
     name ltibia
     direction 0.34202 -0.939693 0   
     length 6.62538   
     axis 0 0 20   XYZ
    dof rx
    limits (-10.0 170.0)
  end
  begin
     id 4 
     name lfoot
     direction 0.10455 -0.287249 0.952133   
     length 2.26699   
     axis -90 7.62852e-016 20   XYZ
    dof rx rz
    limits (-45.0 90.0)
           (-70.0 20.0)
  end
  begin
     id 5 
     name ltoes
     direction 1.53572e-011 -4.22322e-011 1   
     length 1.12949   
     axis -90 7.62852e-016 20   XYZ
    dof rx
    limits (-90.0 20.0)
  end
  begin
     id 6 
     name rhipjoint
     direction -0.728055 -0.574632 0.373811   
     length 2.66432  
     axis 0 0 0  XYZ 
  end
  begin
     id 7 
     name rfemur
     direction -0.34202 -0.939693 0   
     length 6.66732   
     axis 0 0 -20   XYZ
    dof rx ry rz
    limits (-160.0 20.0)
           (-70.0 70.0)
           (-70.0 60.0)
  end
  begin
     id 8 
     name rtibia
     direction -0.34202 -0.939693 0   
     length 6.59288   
     axis 0 0 -20   XYZ
    dof rx
    limits (-10.0 170.0)
 end
 begin
     id 9 
     name rfoot
     direction -0.119193 -0.327479 0.93731   
     length 2.38061  
     axis -90 -7.62852e-016 -20   XYZ
    dof rx rz
    limits (-45.0 90.0)
           (-20.0 70.0)
  end
  begin
     id 10 
     name rtoes
     direction -1.53547e-011 -4.21827e-011 1   
     length 1.17899   
     axis -90 -7.62852e-016 -20   XYZ
    dof rx
    limits (-90.0 20.0)
  end
  begin
     id 11 
     name lowerback
     direction -0.000416114 0.999912 -0.0132284   
     length 2.12109   
     axis 0 0 0   XYZ
    dof rx ry rz
    limits (-20.0 45.0)
           (-30.0 30.0)
           (-30.0 30.0)
  end
  begin
     id 12 
     name upperback
     direction -0.00136371 0.99809 0.0617608   
     length 2.10067   
     axis 0 0 0   XYZ
    dof rx ry rz
    limits (-20.0 45.0)
           (-30.0 30.0)
           (-30.0 30.0)
  end
  begin
     id 13 
     name thorax
     direction -3.43026e-005 0.997776 0.0666515   
     length 2.10618   
     axis 0 0 0   XYZ
    dof rx ry rz
    limits (-20.0 45.0)
           (-30.0 30.0)
           (-30.0 30.0)
  end
  begin
     id 14 
     name lowerneck
     direction 0.0398646 0.998418 0.0396592   
     length 1.83817   
     axis 0 0 0   XYZ
    dof rx ry rz
    limits (-20.0 45.0)
           (-30.0 30.0)
           (-30.0 30.0)
  end
  begin
     id 15 
     name upperneck
     direction -0.0367268 0.961527 -0.272244   
     length 1.81975   
     axis 0 0 0   XYZ
    dof rx ry rz
    limits (-20.0 45.0)
           (-30.0 30.0)
           (-30.0 30.0)
  end
  begin
     id 16
     name head
     direction -0.0182665 0.99536 -0.0944669  
     length 1.86026  
     axis 0 0 0   XYZ
    dof rx ry rz
    limits (-20.0 45.0)
           (-30.0 30.0)
           (-30.0 30.0)
  end
  begin
     id 17 
     name lclavicle
     direction 0.924239 0.361045 0.124212  
     length 3.26878  
     axis 0 0 0   XYZ
    dof ry rz
    limits (-20.0 10.0)
           (0.0 20.0)
  end
  begin
     id 18 
     name lhumerus
     direction 1 -4.48968e-011 -2.56583e-027   
     length 4.58538   
     axis 180 -30 -90   XYZ
    dof rx ry rz
    limits (-60.0 90.0)
           (-90.0 90.0)
           (-90.0 90.0)
  end
  begin
     id 19
     name lradius
     direction 1 -4.4898e-011 -5.50375e-027   
     length 2.68935   
     axis 180 -30 -90   XYZ
    dof rx
    limits (-10.0 170.0)
  end
  begin
     id 20
     name lwrist
     direction 1 -4.48939e-011 -1.48955e-026   
     length 1.34468   
     axis 9.0955e-015 90 90   XYZ
    dof ry
    limits (-180.0 0.0)
 end
  begin
     id 21 
     name lhand
     direction 1 -4.48936e-011 -2.97907e-026   
     length 0.585058   
     axis 1.90115e-014 90 90   XYZ
    dof rx rz
    limits (-90.0 90.0)
           (-45.0 45.0)
  end
  begin
     id 22 
     name lfingers
     direction 1 -4.49082e-011 -5.96235e-026   
     length 0.471689   
     axis 3.80223e-014 90 90   XYZ
    dof rx
    limits (0.0 90.0)
  end
  begin
     id 23
     name lthumb
     direction 0.707107 -6.3489e-011 0.707107   
     length 0.677253   
     axis -90 45 -3.84942e-014   XYZ
    dof rx rz
    limits (-45.0 45.0)
           (-45.0 45.0)
  end
  begin
     id 24 
     name rclavicle
     direction -0.923098 0.371783 0.0983239   
     length 3.19656  
     axis 0 0 0   XYZ 
    dof ry rz
    limits (-10.0 20.0)
           (-20.0 0.0)
  end
  begin
     id 25 
     name rhumerus
     direction -1 -4.48976e-011 -2.5492e-027  
     length 4.4745   
     axis 180 30 90   XYZ
    dof rx ry rz
    limits (-90.0 60.0)
           (-90.0 90.0)
           (-90.0 90.0)
  end
  begin
     id 26 
     name rradius
     direction -1 -4.48941e-011 -4.36555e-027   
     length 2.93896   
     axis 180 30 90   XYZ
    dof rx
    limits (-10.0 170.0)
  end
  begin
     id 27 
     name rwrist
     direction -1 -4.49044e-011 -1.49032e-026   
     length 1.46948   
     axis 9.0955e-015 -90 -90   XYZ
    dof ry
    limits (-180.0 0.0)
  end
  begin
     id 28
     name rhand
     direction -1 -4.48826e-011 -2.97749e-026   
     length 0.405092   
     axis 1.90115e-014 -90 -90   XYZ
    dof rx rz
    limits (-90.0 90.0)
           (-45.0 45.0)
  end
  begin
     id 29
     name rfingers
     direction -1 -4.49209e-011 -5.96602e-026   
     length 0.326596   
     axis 3.80223e-014 -90 -90   XYZ
    dof rx
    limits (0.0 90.0)
  end
  begin
     id 30
     name rthumb
     direction -0.707107 -6.34776e-011 0.707107   
     length 0.468928   
     axis -90 -45 3.84942e-014   XYZ
    dof rx rz
    limits (-45.0 45.0)
           (-45.0 45.0)
  end
:hierarchy
  begin
    root lhipjoint rhipjoint lowerback
    lhipjoint lfemur
    lfemur ltibia
    ltibia lfoot
    lfoot ltoes
    rhipjoint rfemur
    rfemur rtibia
    rtibia rfoot
    rfoot rtoes
    lowerback upperback
    upperback thorax
    thorax lowerneck lclavicle rclavicle
    lowerneck upperneck
    upperneck head
    lclavicle lhumerus
    lhumerus lradius
    lradius lwrist
    lwrist lhand lthumb
    lhand lfingers
    rclavicle rhumerus
    rhumerus rradius
    rradius rwrist
    rwrist rhand rthumb
    rhand rfingers
  end

#!OML:ASF H:\Punching\Project 1\Capture day 1\Session 1\female.ASF
:FULLY-SPECIFIED
:DEGREES
1
root -0.858647 14.9704 -4.07221 12.0036 -20.4809 -3.43299
lowerback -7.31649 -1.54794 5.44756
upperback -6.94678 -2.34175 1.71109
thorax -3.26874 -1.38683 -1.36947
lowerneck -14.3181 -2.93553 0.399649
upperneck 31.6211 -2.8218 -5.72362
head 12.8109 -2.06903 -2.73125
rclavicle 3.36443e-014 -7.55382e-015
rhumerus -44.9757 19.1106 -83.8502
rradius 116.776
rwrist 7.52174
rhand 21.6668 -13.0074
rfingers 7.12502
rthumb 46.0846 -36.0666
lclavicle 3.36443e-014 -7.55382e-015
lhumerus -50.9647 -8.55409 84.4932
lradius 120.184
lwrist -16.016
lhand 17.6327 12.1794
lfingers 7.12502
lthumb 42.3237 36.66
rfemur -11.5313 4.68335 25.0653
rtibia 35.4354
rfoot -32.1022 -22.4572
rtoes 1.42359
lfemur -40.4293 -23.7652 1.64553
ltibia 40.7063
lfoot -29.4892 37.0311
ltoes 25.8137
2
root -0.862491 14.9706 -4.07424 12 -20.5214 -3.4296
lowerback -7.32911 -1.54861 5.45365
upperback -6.92997 -2.34461 1.70052
thorax -3.24496 -1.38794 -1.38485
lowerneck -14.3896 -2.91398 0.312869
upperneck 31.7838 -2.80751 -5.58813
head 12.8997 -2.05638 -2.67113
rclavicle 7.77745e-014 -1.19271e-015
rhumerus -44.3613 18.893 -83.5695
rradius 116.974
rwrist 7.06071
rhand 21.5413 -12.8789
rfingers 7.12502
rthumb 45.9681 -35.9867
lclavicle 7.77745e-014 -1.19271e-015
lhumerus -50.5344 -8.52612 84.221
lradius 120.45
lwrist -15.5958
lhand 17.2949 12.1679
lfingers 7.12502
lthumb 42.0073 36.7556
rfemur -11.5427 4.65283 25.0657
rtibia 35.4435
rfoot -32.0939 -22.4059
rtoes 1.42016
lfemur -40.4076 -23.7855 1.66527
ltibia 40.7054
lfoot -29.574 37.0361
ltoes 25.8543
3
root -0.866342 14.9701 -4.07638 12.0092 -20.551 -3.46081
lowerback -7.31855 -1.55535 5.47462
upperback -6.93919 -2.35335 1.71776
thorax -3.26148 -1.39338 -1.37828
lowerneck -14.4795 -2.89338 0.157156
upperneck 32.06 -2.79094 -5.40298
head 13.0435 -2.04543 -2.58477
rclavicle -1.15295e-014 -2.66371e-014
rhumerus -43.8616 18.7575 -83.2609
rradius 117.245
rwrist 6.56196
rhand 21.2438 -12.7053
rfingers 7.12502
rthumb 45.692 -35.927
lclavicle -1.15295e-014 -2.66371e-014
lhumerus -50.1321 -8.50217 83.9852
lradius 120.74
lwrist -15.0658
lhand 16.9921 12.1376
lfingers 7.12502
lthumb 41.7233 36.8196
rfemur -11.541 4.64905 25.1093
rtibia 35.4332
rfoot -32.0661 -22.3939
rtoes 1.41471
lfemur -40.4052 -23.8195 1.73378
ltibia 40.7237
lfoot -29.7261 37.0066
ltoes 26.0196
4
root -0.870525 14.9694 -4.07768 12.0311 -20.5957 -3.5043
lowerback -7.36131 -1.54268 5.5375
upperback -6.9368 -2.34298 1.7014
thorax -3.23863 -1.39075 -1.43132
lowerneck -14.8737 -2.82968 0.138411
upperneck 32.7881 -2.7234 -5.28358
head 13.4458 -2.00795 -2.56842
rclavicle -3.16068e-014 8.34896e-015
rhumerus -43.3413 18.5705 -82.9662
rradius 117.542
rwrist 5.96108
rhand 21.0052 -12.4929
rfingers 7.12502
rthumb 45.4703 -35.8048
lclavicle -3.16068e-014 8.34896e-015
lhumerus -49.6192 -8.50134 83.59
lradius 121.007
lwrist -14.3968
lhand 16.8492 11.9543
lfingers 7.12502
lthumb 41.5893 36.6805
rfemur -11.5532 4.65197 25.1606
rtibia 35.426
rfoot -32.0708 -22.3513
rtoes 1.43294
lfemur -40.4009 -23.8483 1.81693
ltibia 40.7389
lfoot -29.8605 37.0134
ltoes 26.1263
5
root -0.874476 14.969 -4.0792 12.0414 -20.6305 -3.52699
lowerback -7.38544 -1.53971 5.57167
upperback -6.94256 -2.34247 1.69345
thorax -3.23348 -1.39221 -1.45916
lowerneck -15.1426 -2.77382 0.073168
upperneck 33.377 -2.66679 -5.13742
head 13.7687 -1.97579 -2.52469
rclavicle 1.16786e-014 -1.43125e-014
rhumerus -42.7983 18.3868 -82.6646
rradius 117.819
rwrist 5.35236
rhand 20.8158 -12.3559
rfingers 7.12502
rthumb 45.2943 -35.7386
lclavicle 1.16786e-014 -1.43125e-014
lhumerus -49.1215 -8.48366 83.2307
lradius 121.277
lwrist -13.757
lhand 16.6814 11.832
lfingers 7.12502
lthumb 41.432 36.6096
rfemur -11.5574 4.63842 25.1916
rtibia 35.4155
rfoot -32.0602 -22.3182
rtoes 1.43298
lfemur -40.3958 -23.8689 1.87048
ltibia 40.756
lfoot -29.9706 37.0042
ltoes 26.215
6
root -0.878374 14.9686 -4.08056 12.0505 -20.6622 -3.54607
lowerback -7.41121 -1.53657 5.60464
upperback -6.95599 -2.3416 1.68293
thorax -3.23556 -1.39384 -1.48883
lowerneck -15.428 -2.70494 0.0177123
upperneck 34.0579 -2.59702 -4.98662
head 14.1428 -1.93638 -2.48262
rclavicle 7.65321e-015 1.63003e-014
rhumerus -42.2469 18.2017 -82.3528
rradius 118.104
rwrist 4.67165
rhand 20.6351 -12.2185
rfingers 7.12502
rthumb 45.1263 -35.6682
lclavicle 7.65321e-015 1.63003e-014
lhumerus -48.5909 -8.46875 82.8396
lradius 121.541
lwrist -13.0657
lhand 16.5411 11.6861
lfingers 7.12502
lthumb 41.3003 36.5063
rfemur -11.5616 4.61912 25.219
rtibia 35.4073
rfoot -32.05 -22.2849
rtoes 1.42315
lfemur -40.3886 -23.8768 1.91438
ltibia 40.7705
lfoot -30.0563 36.9906
ltoes 26.2852
7
root -0.882285 14.9682 -4.08186 12.0556 -20.6926 -3.55829
lowerback -7.43712 -1.53198 5.63254
upperback -6.97598 -2.33845 1.66727
thorax -3.24429 -1.39455 -1.52073
lowerneck -15.7119 -2.62315 -0.0177328
upperneck 34.808 -2.51523 -4.84006
head 14.5564 -1.88985 -2.44612
rclavicle -1.73937e-014 1.90833e-014
rhumerus -41.6781 18.0109 -82.0324
rradius 118.391
rwrist 3.91239
rhand 20.4407 -12.0527
rfingers 7.12502
rthumb 44.9454 -35.5738
lclavicle -1.73937e-014 1.90833e-014
lhumerus -48.0316 -8.46102 82.4194
lradius 121.807
lwrist -12.3388
lhand 16.4107 11.5146
lfingers 7.12502
lthumb 41.1779 36.3742
rfemur -11.565 4.5979 25.2399
rtibia 35.4027
rfoot -32.0438 -22.2519
rtoes 1.41792
lfemur -40.3758 -23.8691 1.94334
ltibia 40.7801
lfoot -30.1151 36.9713
ltoes 26.3354
8
root -0.886172 14.9678 -4.0832 12.0556 -20.72 -3.56432
lowerback -7.45921 -1.5298 5.65248
upperback -7.00164 -2.33771 1.65069
thorax -3.26093 -1.39647 -1.54896
lowerneck -15.9657 -2.52531 -0.0387515
upperneck 35.5894 -2.41817 -4.69098
head 14.9883 -1.83434 -2.4083
rclavicle -4.10987e-014 -2.34566e-014
rhumerus -41.0802 17.8261 -81.698
rradius 118.68
rwrist 3.07551
rhand 20.2089 -11.8286
rfingers 7.12502
rthumb 44.7296 -35.4339
lclavicle -4.10987e-014 -2.34566e-014
lhumerus -47.4345 -8.45678 81.975
lradius 122.068
lwrist -11.5928
lhand 16.2324 11.3274
lfingers 7.12502
lthumb 41.0104 36.2405
rfemur -11.5651 4.57449 25.2555
rtibia 35.4
rfoot -32.0392 -22.2217
rtoes 1.41513
lfemur -40.3579 -23.8482 1.95895
ltibia 40.7867
lfoot -30.1509 36.9428
ltoes 26.3753
9
root -0.890068 14.9675 -4.08454 12.0507 -20.7469 -3.56866
lowerback -7.47587 -1.53002 5.66776
upperback -7.03324 -2.33934 1.63438
thorax -3.28678 -1.39973 -1.57403
lowerneck -16.1718 -2.40765 -0.0368536
upperneck 36.3782 -2.30106 -4.54532
head 15.4242 -1.76744 -2.37053
rclavicle 4.18939e-014 1.19271e-015
rhumerus -40.4537 17.6553 -81.3535
rradius 118.973
rwrist 2.17881
rhand 19.8734 -11.4881
rfingers 7.12502
rthumb 44.4171 -35.2136
lclavicle 4.18939e-014 1.19271e-015
lhumerus -46.8004 -8.45722 81.5064
lradius 122.325
lwrist -10.8454
lhand 15.9718 11.1131
lfingers 7.12502
lthumb 40.7656 36.1036
rfemur -11.5601 4.55223 25.2703
rtibia 35.3984
rfoot -32.0363 -22.1924
rtoes 1.41721
lfemur -40.3319 -23.8092 1.96333
ltibia 40.7911
lfoot -30.1667 36.9001
ltoes 26.4099
10
root -0.893972 14.9671 -4.08604 12.0408 -20.7713 -3.57241
lowerback -7.48983 -1.53372 5.67995
upperback -7.06667 -2.34523 1.6183
thorax -3.31621 -1.40512 -1.59717
lowerneck -16.3274 -2.26727 -0.00169274
upperneck 37.1548 -2.15935 -4.41165
head 15.8538 -1.687 -2.33639
rclavicle 4.11981e-014 -2.26615e-014
rhumerus -39.7863 17.5059 -81.0053
rradius 119.264
rwrist 1.25537
rhand 19.3795 -10.9898
rfingers 7.12502
rthumb 43.9566 -34.8888
lclavicle 4.11981e-014 -2.26615e-014
lhumerus -46.1255 -8.45948 81.009
lradius 122.581
lwrist -10.1048
lhand 15.6257 10.8903
lfingers 7.12502
lthumb 40.4403 35.982
rfemur -11.5494 4.53269 25.2863
rtibia 35.3962
rfoot -32.0346 -22.1673
rtoes 1.4249
lfemur -40.2984 -23.7452 1.95519
ltibia 40.7947
lfoot -30.1449 36.8442
ltoes 26.4233
